<?xml version="1.0" standalone="no"?>
<!DOCTYPE svg PUBLIC "-//W3C//DTD SVG 20010904//EN"
 "http://www.w3.org/TR/2001/REC-SVG-20010904/DTD/svg10.dtd">
<svg version="1.0" xmlns="http://www.w3.org/2000/svg"
 width="93.000000pt" height="178.000000pt" viewBox="0 0 93.000000 178.000000"
 preserveAspectRatio="xMidYMid meet">

<g transform="translate(0.000000,178.000000) scale(0.100000,-0.100000)"
fill="#000000" stroke="none">
<path d="M0 890 l0 -890 465 0 465 0 0 890 0 890 -465 0 -465 0 0 -890z m880
695 l0 -135 -415 0 -415 0 0 135 0 135 415 0 415 0 0 -135z m0 -695 l0 -140
-415 0 -415 0 0 140 0 140 415 0 415 0 0 -140z m0 -700 l0 -140 -415 0 -415 0
0 140 0 140 415 0 415 0 0 -140z"/>
</g>
</svg>
