<?xml version="1.0" standalone="no"?>
<!DOCTYPE svg PUBLIC "-//W3C//DTD SVG 20010904//EN"
 "http://www.w3.org/TR/2001/REC-SVG-20010904/DTD/svg10.dtd">
<svg version="1.0" xmlns="http://www.w3.org/2000/svg"
 width="114.000000pt" height="62.000000pt" viewBox="0 0 114.000000 62.000000"
 preserveAspectRatio="xMidYMid meet">

<g transform="translate(0.000000,62.000000) scale(0.100000,-0.100000)"
fill="#000000" stroke="none">
<path d="M0 310 l0 -310 570 0 570 0 0 310 0 310 -570 0 -570 0 0 -310z m368
62 c106 -90 198 -161 205 -159 7 3 101 82 210 176 215 185 206 181 259 124
l28 -29 -246 -210 c-135 -115 -250 -210 -255 -212 -5 -2 -121 92 -259 209
l-251 213 43 37 c34 30 46 35 58 25 8 -6 102 -85 208 -174z"/>
</g>
</svg>
