<?xml version="1.0" standalone="no"?>
<!DOCTYPE svg PUBLIC "-//W3C//DTD SVG 20010904//EN"
 "http://www.w3.org/TR/2001/REC-SVG-20010904/DTD/svg10.dtd">
<svg version="1.0" xmlns="http://www.w3.org/2000/svg"
 width="73.000000pt" height="119.000000pt" viewBox="0 0 73.000000 119.000000"
 preserveAspectRatio="xMidYMid meet">

<g transform="translate(0.000000,119.000000) scale(0.100000,-0.100000)"
fill="#000000" stroke="none">
<path d="M0 595 l0 -595 365 0 365 0 0 595 0 595 -365 0 -365 0 0 -595z m700
430 l0 -125 -130 0 -130 0 0 -85 0 -85 123 0 c68 0 126 -2 129 -5 2 -3 -4 -59
-15 -125 l-20 -119 -106 -3 -106 -3 -3 -227 -2 -228 -125 0 -125 0 0 230 0
230 -85 0 -86 0 3 122 3 123 81 3 82 3 4 117 c4 94 9 125 26 158 26 50 99 117
144 131 18 6 102 11 186 12 l152 1 0 -125z"/>
</g>
</svg>
