<?xml version="1.0" standalone="no"?>
<!DOCTYPE svg PUBLIC "-//W3C//DTD SVG 20010904//EN"
 "http://www.w3.org/TR/2001/REC-SVG-20010904/DTD/svg10.dtd">
<svg version="1.0" xmlns="http://www.w3.org/2000/svg"
 width="115.000000pt" height="114.000000pt" viewBox="0 0 115.000000 114.000000"
 preserveAspectRatio="xMidYMid meet">

<g transform="translate(0.000000,114.000000) scale(0.100000,-0.100000)"
fill="#000000" stroke="none">
<path d="M0 570 l0 -570 575 0 575 0 0 570 0 570 -575 0 -575 0 0 -570z m1005
530 c26 -6 53 -23 78 -49 l37 -40 0 -438 c0 -419 -1 -439 -20 -471 -11 -18
-34 -41 -52 -52 -32 -19 -52 -20 -463 -20 -411 0 -431 1 -463 20 -18 11 -41
34 -52 52 -20 32 -20 48 -18 475 l3 443 37 36 c23 23 50 40 75 44 56 11 791
11 838 0z"/>
<path d="M215 1045 c-48 -17 -101 -74 -115 -124 -14 -50 -13 -655 1 -706 15
-54 50 -98 96 -121 35 -18 65 -19 388 -19 323 0 353 1 388 19 43 21 79 64 96
115 15 46 15 661 0 716 -14 51 -73 110 -124 124 -63 17 -679 14 -730 -4z m721
-80 c47 -19 64 -63 64 -165 l0 -80 -73 0 -73 0 -59 58 c-44 42 -75 62 -114 75
-116 37 -215 13 -306 -75 l-59 -58 -73 0 -73 0 0 80 c0 100 17 145 62 165 49
21 653 22 704 0z m-282 -187 c62 -19 130 -91 146 -156 35 -147 -66 -275 -215
-275 -129 0 -219 89 -219 218 0 154 139 257 288 213z"/>
<path d="M833 940 c-20 -8 -23 -17 -23 -68 0 -32 5 -63 12 -70 7 -7 35 -12 63
-12 28 0 56 5 63 12 7 7 12 38 12 70 0 54 -2 59 -26 68 -31 12 -71 12 -101 0z"/>
<path d="M530 700 c-12 -8 -11 -10 6 -10 31 0 64 -36 64 -70 0 -65 -79 -94
-119 -44 -12 15 -21 34 -21 43 0 14 -2 14 -10 1 -15 -24 -12 -82 8 -119 50
-100 186 -106 249 -12 44 66 21 158 -49 201 -35 21 -103 26 -128 10z"/>
</g>
</svg>
